# xmcd
#
# Track frame offsets:
#	150
#	22851
#	39351
#	61397
#	78282
#	98708
#	114548
#	129484
#	141043
#	157675
#	172271
#
# Disc length: 2445 seconds
# Revision: 0
# Processed by: cddbd v1.5.2PL0 Copyright (c) Steve Scherf et al.
# Submitted via: dBpowerAMP V12.0
#
DISCID=80098b0b
DTITLE=Nicki Bluhm and The Gramblers - Nicki Bluhm and The Gramblers
DYEAR=2013
DGENRE=Americana
TTITLE0=Little Too Late
TTITLE1=Hey Stranger
TTITLE2=Nothin'
TTITLE3=Till I'm Blue
TTITLE4=Ravenous
TTITLE5=Deep Water
TTITLE6=Go Go Go
TTITLE7=Might Get Blessed
TTITLE8=Check Your Head
TTITLE9=Always Come Back
TTITLE10=Willow Tree
EXTD=
EXTT0=
EXTT1=
EXTT2=
EXTT3=
EXTT4=
EXTT5=
EXTT6=
EXTT7=
EXTT8=
EXTT9=
EXTT10=
PLAYORDER=
